<?xml version="1.0" encoding="utf-8"?>
<!-- Generator: Adobe Illustrator 16.0.0, SVG Export Plug-In . SVG Version: 6.00 Build 0)  -->
<!DOCTYPE svg PUBLIC "-//W3C//DTD SVG 1.1//EN" "http://www.w3.org/Graphics/SVG/1.1/DTD/svg11.dtd">
<svg version="1.1" id="Layer_1" xmlns="http://www.w3.org/2000/svg" xmlns:xlink="http://www.w3.org/1999/xlink" x="0px" y="0px"
	 width="62.953px" height="58.636px" viewBox="0 0 62.953 58.636" enable-background="new 0 0 62.953 58.636" xml:space="preserve">
<g>
	<g>
		<path d="M19.369,32.878c2.417,1.646,6.736,2.417,7.301,2.3c0.565-0.116-1.594-2.454-1.799-2.66
			c-0.206-0.205,0.822-0.308,1.234,0.36c0.411,0.668,2.159,2.3,2.159,2.3c-0.257-0.322,0-3.894,0-3.894s0.874,3.394,1.542,3.856
			c0.522,0.361,1.63-1.965,2.09-3.001c-0.287,0.983-0.149,2.563-0.034,2.881c0.137,0.377,0.72-0.172,1.234-1.166
			c0.515-0.994,2.057-1.645,2.057-1.645c-0.822,0.822-1.542,2.811-1.542,2.811c3.702-0.754,6.444-2.125,9.94-5.305
			c1.251-1.138,2.294-2.506,3.089-3.997c2.506-4.7,3.306-10.4,1.677-15.49c-1.765-5.512-7.628-9.208-13.403-7.84
			c-2.605,0.617-4.799,3.633-4.799,3.633s2.194,3.017,2.879,3.702c0.686,0.686,1.303-0.137,1.851-0.548
			c0.549-0.412,1.646-0.754,3.702-0.48s3.702,2.125,4.524,4.662c0.92,2.835,0.238,6.111-0.479,8.913
			c-0.292,1.139-0.894,3.014-2.188,3.429c-1.136,0.365-0.625-1.303-0.391-1.858c1.502-3.567,2.945-7.961,0.797-11.58
			c-1.303-2.194-4.045-2.125-5.484-1.44s-1.165,3.497-0.822,6.033c0.23,1.71,0.04,3.479-0.204,5.178
			c-0.096,0.668-0.232,1.38-0.448,2.021c-0.178,0.527-0.922,1.322-1.257,0.359c-0.168-0.482-0.053-1.115,0.058-1.595
			c0.5-2.166,0.383-4.375,0.215-6.576c-0.175-2.281-0.7-4.583-1.994-6.503c-0.092-0.135-1.435-1.995-1.738-1.797
			c-0.647,0.424-1.161,1.148-1.496,1.83c-1.552,3.165-1.894,7.726-1.12,11.124c0.244,1.071,0.597,2.131,0.579,3.244
			c-0.017,1.065-0.646,1.377-1.405,0.614c-0.514-0.516-1.028-3.959-1.233-5.449s-0.257-4.576-0.154-6.015
			c0.103-1.44-1.697-2.365-3.496-2.365c-1.8,0-3.445,2.673-3.65,4.884c-0.206,2.211,0.822,5.707,1.851,7.815s1.08,2.005,0.771,2.674
			c-0.329,0.713-1.889-1.783-2.021-1.995c-0.783-1.256-1.257-2.654-1.711-4.055c-1.335-4.116-0.931-8.623,3.27-10.815
			c2.365-1.234,5.707,1.028,5.707,1.028l3.239-4.319c0.163-0.216-1.971-1.707-2.091-1.786c-1.726-1.155-3.792-1.757-5.881-1.629
			c-3.403,0.208-7.112,2.564-8.693,5.594c-1.802,3.455-1.824,7.648-1.273,11.418C11.143,25.332,14.8,29.768,19.369,32.878z"/>
		<path d="M25.957,2.403c0.13,0.114,0.309,0.166,0.466,0.237c0.188,0.084,0.371,0.18,0.551,0.278c0.398,0.217,0.77,0.413,1.104,0.72
			c0.273,0.25,0.527,0.522,0.766,0.803C28.851,4.45,28.979,4.59,28.972,4.6c0.378-0.49,0.839-0.986,1.358-1.341
			c0.22-0.15,0.461-0.25,0.698-0.37c0.164-0.083,0.328-0.164,0.494-0.241c0.151-0.07,0.32-0.125,0.446-0.234
			c0.362-0.316,0.474-0.833,0.182-1.222c-0.119-0.159-0.275-0.292-0.434-0.414c-0.278-0.216-0.544-0.417-0.882-0.542
			C30.516,0.117,30.182,0.038,29.842,0c-0.216-0.024-0.433-0.028-0.65-0.028h-0.44c-0.665-0.014-1.405,0.088-1.986,0.417
			c-0.182,0.104-0.345,0.232-0.51,0.358c-0.149,0.113-0.295,0.235-0.413,0.378c-0.181,0.22-0.263,0.483-0.193,0.758
			C25.699,2.073,25.804,2.27,25.957,2.403z"/>
		<path d="M31.503,46.983c0.206-1.27-0.309-8.294-0.309-8.295c-0.043-0.586,2.218-2.596,0.515-2.879c-0.31-0.052-2.828,0-3.291,0
			c-0.462,0-0.72,0.257-0.771,0.669c-0.052,0.411,1.08,1.851,1.941,2.673c0.861,0.823,0.27,7.764,0.27,7.764
			c-0.257-1.079-2.777-2.673-2.777-2.673c-0.822,0.565-1.08,1.696-1.08,1.696c0.045-0.199,1.874,0.909,2.025,1.05
			c0.635,0.586,1.122,1.388,1.341,2.225c0.414,1.578,0.186,3.399-0.18,4.964c-0.227,0.973-0.471,2.005-0.8,2.947
			c-0.132,0.379-0.35,0.693-0.201,0.987c0.041,0.08,0.108,0.159,0.212,0.236c0.255,0.191,1.332,0.426,1.616,0.188
			c0.68-0.571,0.744-2.108,0.92-2.916c0.296-1.36,0.531-2.752,0.536-4.146c0.003-0.805,0.244-1.594,0.707-2.249
			c0.846-1.199,2.147-2.006,3.445-2.646c0.438-0.216,1.558-0.349,1.608-0.934c0.037-0.437-0.637-1.109-0.835-1.504
			C34.62,44.527,32.907,45.875,31.503,46.983z"/>
		<path d="M23.328,37.814c-1.286-2.005-3.805-3.805-4.371-4.062s-0.72,0.309-1.131,1.08c-0.411,0.771-2.057,2.159-2.622,2.622
			s-0.36,0.926,0.926,1.439c1.285,0.515,5.81,4.268,5.81,4.268c-4.523-1.729-8.638-3.702-8.946-3.548S9.188,43.83,9.188,43.83
			s1.8,1.697,3.856,2.469c2.057,0.771,6.478,0.874,9.306,0.463c2.828-0.412,2.725-2.417,3.239-3.239c0.514-0.823,0.257-1.491,0-1.8
			C25.333,41.414,24.613,39.82,23.328,37.814z"/>
		<path d="M12.582,37.814c1.377-1.126,3.134-2.342,4.048-3.898c0.158-0.27,0.157-0.457,0.062-0.589
			c-0.247-0.343-1.129-0.309-1.506-0.349c-2.385-0.258-4.423-0.196-6.821-0.151c-0.257,0.566-1.439,2.469-2.571,4.062
			c-1.131,1.594-1.851,5.398-1.851,5.398c-0.514-2.622,1.903-8.792,2.263-9.307c0.44-0.628-0.764-0.282-1.03-0.297
			c-0.591-0.035-1.14-0.329-1.672-0.56c-1.066-0.461-2.236-0.888-2.954,0.343c-0.36,0.617-0.771,4.268-0.412,7.146
			c0.36,2.88,2.365,6.17,2.982,6.89c0.617,0.72,1.542-0.205,2.159-0.771c0.617-0.566,2.262-2.571,3.034-3.394
			C9.085,41.516,11.451,38.74,12.582,37.814z"/>
		<path d="M37.232,42.494l2.206,3.496c2.125-1.098,6.513-1.508,10.215-0.96c3.701,0.549,9.529-7.473,10.626-9.243
			c1.097-1.771,2.674-2.411,2.674-2.411C45.883,22.475,37.232,42.494,37.232,42.494z M42.455,41.534c0,0,3.77-3.703,6.711-5.747
			c2.778-1.932,8.284-3.476,8.302-2.616C57.499,34.61,54.246,33.307,42.455,41.534z"/>
	</g>
</g>
</svg>
